<mxfile host="app.diagrams.net" agent="Mozilla/5.0 (Windows NT 10.0; Win64; x64) AppleWebKit/537.36 (KHTML, like Gecko) Chrome/133.0.0.0 Safari/537.36" version="26.0.11">
  <diagram name="Page-1" id="8ce9d11a-91a2-4d17-14d8-a56ed91bf033">
    <mxGraphModel dx="1434" dy="746" grid="1" gridSize="10" guides="1" tooltips="1" connect="1" arrows="1" fold="1" page="1" pageScale="1" pageWidth="1100" pageHeight="850" background="none" math="0" shadow="0">
      <root>
        <mxCell id="0" />
        <mxCell id="1" parent="0" />
        <mxCell id="pGuF5hiKfASu8fbuPq4C-1" value="Host - external" style="rounded=1;whiteSpace=wrap;html=1;shadow=0;strokeColor=default;strokeWidth=1;align=center;verticalAlign=middle;fontFamily=Verdana;fontSize=12;fontColor=default;labelBackgroundColor=none;fillColor=default;" vertex="1" parent="1">
          <mxGeometry x="220" y="310" width="120" height="60" as="geometry" />
        </mxCell>
        <mxCell id="pGuF5hiKfASu8fbuPq4C-2" value="Dev" style="shape=umlActor;verticalLabelPosition=bottom;verticalAlign=top;html=1;outlineConnect=0;" vertex="1" parent="1">
          <mxGeometry x="100" y="70" width="30" height="60" as="geometry" />
        </mxCell>
        <mxCell id="pGuF5hiKfASu8fbuPq4C-10" style="edgeStyle=orthogonalEdgeStyle;rounded=0;orthogonalLoop=1;jettySize=auto;html=1;entryX=0;entryY=0.5;entryDx=0;entryDy=0;strokeWidth=3;" edge="1" parent="1" source="pGuF5hiKfASu8fbuPq4C-3" target="pGuF5hiKfASu8fbuPq4C-7">
          <mxGeometry relative="1" as="geometry" />
        </mxCell>
        <mxCell id="pGuF5hiKfASu8fbuPq4C-11" style="edgeStyle=orthogonalEdgeStyle;rounded=0;orthogonalLoop=1;jettySize=auto;html=1;entryX=0;entryY=0.5;entryDx=0;entryDy=0;strokeWidth=3;" edge="1" parent="1" source="pGuF5hiKfASu8fbuPq4C-3" target="pGuF5hiKfASu8fbuPq4C-1">
          <mxGeometry relative="1" as="geometry" />
        </mxCell>
        <mxCell id="pGuF5hiKfASu8fbuPq4C-12" value="Config (connection via ssh/22)" style="edgeLabel;html=1;align=center;verticalAlign=middle;resizable=0;points=[];" vertex="1" connectable="0" parent="pGuF5hiKfASu8fbuPq4C-11">
          <mxGeometry x="-0.5369" y="-1" relative="1" as="geometry">
            <mxPoint as="offset" />
          </mxGeometry>
        </mxCell>
        <mxCell id="pGuF5hiKfASu8fbuPq4C-3" value="ANSIBLE" style="sketch=0;aspect=fixed;pointerEvents=1;shadow=0;dashed=0;html=1;strokeColor=none;labelPosition=center;verticalLabelPosition=bottom;verticalAlign=top;align=center;fillColor=#00188D;shape=mxgraph.azure.laptop" vertex="1" parent="1">
          <mxGeometry x="250" y="85" width="110" height="66" as="geometry" />
        </mxCell>
        <mxCell id="pGuF5hiKfASu8fbuPq4C-4" style="edgeStyle=orthogonalEdgeStyle;rounded=0;orthogonalLoop=1;jettySize=auto;html=1;entryX=0.08;entryY=0.5;entryDx=0;entryDy=0;entryPerimeter=0;strokeWidth=3;" edge="1" parent="1" source="pGuF5hiKfASu8fbuPq4C-2" target="pGuF5hiKfASu8fbuPq4C-3">
          <mxGeometry relative="1" as="geometry" />
        </mxCell>
        <mxCell id="pGuF5hiKfASu8fbuPq4C-7" value="Host - Internal" style="rounded=1;whiteSpace=wrap;html=1;shadow=0;strokeColor=default;strokeWidth=1;align=center;verticalAlign=middle;fontFamily=Verdana;fontSize=12;fontColor=default;labelBackgroundColor=none;fillColor=default;" vertex="1" parent="1">
          <mxGeometry x="220" y="380" width="120" height="60" as="geometry" />
        </mxCell>
      </root>
    </mxGraphModel>
  </diagram>
</mxfile>
